<?xml version="1.0" encoding="utf-8"?><!-- Uploaded to: SVG Repo, www.svgrepo.com, Generator: SVG Repo Mixer Tools -->
<svg width="64" height="64" viewBox="0 0 24 24" id="Layer_1" data-name="Layer 1" xmlns="http://www.w3.org/2000/svg"><defs><style>.cls-1{fill:none;stroke:#020202;stroke-miterlimit:10;stroke-width:1.91px;}</style></defs><circle class="cls-1" cx="19.64" cy="20.59" r="1.91"/><path class="cls-1" d="M10.09,18.2a3.64,3.64,0,0,1,0,.48,4.29,4.29,0,0,1-8.53,0,3.64,3.64,0,0,1,0-.48,4.3,4.3,0,0,1,8.59,0Z"/><path class="cls-1" d="M6.27,18.2v.06a.48.48,0,0,1-.95,0V18.2a.48.48,0,0,1,.95,0Z"/><path class="cls-1" d="M10.06,18.68h9.58L22.5,13a2.86,2.86,0,0,0-2.86-2.86H3.41A1.92,1.92,0,0,0,1.5,12v6.68h0"/><polygon class="cls-1" points="12 10.09 3.41 10.09 3.41 1.5 10.09 1.5 12 10.09"/><line class="cls-1" x1="2.45" y1="1.5" x2="12" y2="1.5"/><line class="cls-1" x1="14.86" y1="12.95" x2="18.68" y2="12.95"/><path class="cls-1" d="M16.77,10.09V7.23a1.91,1.91,0,0,1,1.91-1.91h0"/></svg>